<svg height="464pt" viewBox="0 0 464 464" width="464pt" xmlns="http://www.w3.org/2000/svg"><path d="m25.945312 398.347656 39.421876 39.425782 113.519531-63.855469-89.085938-89.089844zm0 0"/><path d="m103.3125 250.339844c-1.671875-1.671875-3.984375-2.621094-6.34375-2.621094-4.945312 0-8.96875 4.023438-8.96875 8.964844 0 2.359375.953125 4.671875 2.625 6.34375l110.0625 110.066406c1.671875 1.671875 3.984375 2.625 6.34375 2.625 4.945312 0 8.96875-4.027344 8.96875-8.96875 0-2.359375-.953125-4.671875-2.625-6.34375zm0 0"/><path d="m2.625 448.40625c-1.671875 1.671875-2.625 3.984375-2.625 6.34375 0 4.941406 4.023438 8.96875 8.96875 8.96875 2.359375 0 4.671875-.953125 6.34375-2.625l25.375-25.375-12.6875-12.691406zm0 0"/><path d="m127.3125 226.339844c-1.671875-1.671875-3.984375-2.621094-6.34375-2.621094-4.945312 0-8.96875 4.023438-8.96875 8.964844 0 2.359375.953125 4.671875 2.625 6.34375l110.0625 110.066406c1.671875 1.671875 3.984375 2.625 6.34375 2.625 4.945312 0 8.96875-4.027344 8.96875-8.96875 0-2.359375-.953125-4.671875-2.625-6.34375zm0 0"/><path d="m319.3125 34.339844c-1.671875-1.671875-3.984375-2.621094-6.34375-2.621094-4.945312 0-8.96875 4.023438-8.96875 8.964844 0 2.359375.953125 4.671875 2.625 6.34375l110.0625 110.066406c1.671875 1.671875 3.984375 2.625 6.34375 2.625 4.945312 0 8.96875-4.027344 8.96875-8.96875 0-2.359375-.953125-4.671875-2.625-6.34375zm0 0"/><path d="m454.910156 49.941406-41.140625-41.144531c-11.601562-11.601563-31.800781-11.753906-43.554687-.3125l-27.445313 26.6875 85.765625 85.769531 26.6875-27.449218c5.65625-5.816407 8.777344-13.496094 8.777344-21.605469 0-8.296875-3.222656-16.082031-9.089844-21.945313zm0 0"/><path d="m148.070312 224.476562 91.167969 91.167969 130.824219-134.550781-87.4375-87.441406zm0 0"/><path d="m295.3125 58.339844c-1.671875-1.671875-3.984375-2.621094-6.34375-2.621094-4.945312 0-8.96875 4.023438-8.96875 8.964844 0 2.359375.953125 4.671875 2.625 6.34375l110.0625 110.066406c1.671875 1.671875 3.984375 2.625 6.34375 2.625 4.945312 0 8.96875-4.027344 8.96875-8.96875 0-2.359375-.953125-4.671875-2.625-6.34375zm0 0"/></svg>