<?xml version="1.0" encoding="iso-8859-1"?>
<!-- Generator: Adobe Illustrator 19.0.0, SVG Export Plug-In . SVG Version: 6.00 Build 0)  -->
<svg version="1.1" id="Capa_1" xmlns="http://www.w3.org/2000/svg" xmlns:xlink="http://www.w3.org/1999/xlink" x="0px" y="0px"
	 viewBox="0 0 512 512" style="enable-background:new 0 0 512 512;" xml:space="preserve">
<g>
	<g>
		<path d="M256,31.344c-141.152,0-256,93.312-256,208c0,58.592,29.824,113.536,82.304,152.832
			c-15.744,23.2-39.104,47.936-70.144,55.648c-7.424,1.856-12.512,8.672-12.128,16.32c0.384,7.648,6.08,13.952,13.664,15.04
			c1.152,0.16,10.656,1.472,26.272,1.472c32.48,0,91.328-5.696,155.968-39.168c19.168,3.872,39.328,5.856,60.064,5.856
			c141.152,0,256-93.312,256-208S397.152,31.344,256,31.344z"/>
	</g>
</g>
<g>
</g>
<g>
</g>
<g>
</g>
<g>
</g>
<g>
</g>
<g>
</g>
<g>
</g>
<g>
</g>
<g>
</g>
<g>
</g>
<g>
</g>
<g>
</g>
<g>
</g>
<g>
</g>
<g>
</g>
</svg>
