<svg id="Capa_1" enable-background="new 0 0 511.956 511.956" height="512" viewBox="0 0 511.956 511.956" width="512" xmlns="http://www.w3.org/2000/svg"><g><path d="m483.801 64.782-42.866-42.856c-29.24-29.235-76.816-29.233-106.055 0-8.465 8.462-237.437 237.385-244.257 244.204-2.813 2.813-4.395 6.629-4.395 10.607 0 6.817 4.36 10.538 4.429 10.642l-31.966 31.96c-5.855 5.852-5.859 15.359 0 21.215 5.695 5.694 8.832 13.265 8.832 21.317 0 13.698-8.761 21.209-8.834 21.32-13.581 13.59-44.322 44.354-48.133 48.167-4.708 4.711-5.745 11.962-2.548 17.804l30.098 54.997c4.795 8.761 16.686 10.483 23.764 3.406l60.608-60.595c11.76-11.756 30.894-11.756 42.653 0 5.857 5.857 15.354 5.857 21.211 0l31.97-31.964c.135.088 3.922 4.432 10.644 4.432 3.838 0 7.677-1.464 10.605-4.393l84.445-84.427c2.476-2.475 159.231-159.197 159.794-159.76 29.318-29.309 29.322-76.761.001-106.076zm-170.402 234.021-106.513-106.49 43.358-43.349 106.513 106.49zm-258.586 173.395-15.095-27.582 29.583-29.604 21.356 21.351zm119.585-55.708c-18.8-11.097-42.387-11.096-61.188 0l-24.024-24.02c11.116-18.745 11.131-42.427 0-61.197l22.687-22.683c8.085 8.084 75.452 75.436 85.225 85.206zm54.558-33.262c-12.197-12.194-94.367-94.347-106.513-106.49l63.228-63.214 106.513 106.49zm233.634-233.583-84.617 84.599-106.513-106.491 84.631-84.613c17.544-17.539 46.089-17.539 63.633 0l42.866 42.856c17.59 17.589 17.592 46.059 0 63.649z"/></g></svg>