<svg id="triangle" enable-background="new 0 0 300 300" height="512" viewBox="0 0 300 300" width="512" xmlns="http://www.w3.org/2000/svg"><g fill="#476afc"><path d="m150 182c-4.418 0-8-3.582-8-8v-24c0-4.418 3.582-8 8-8s8 3.582 8 8v24c0 4.418-3.582 8-8 8zm0-48c-4.418 0-8-3.582-8-8v-24c0-4.418 3.582-8 8-8s8 3.582 8 8v24c0 4.418-3.582 8-8 8zm0-48c-4.418 0-8-3.582-8-8v-24c0-4.418 3.582-8 8-8s8 3.582 8 8v24c0 4.418-3.582 8-8 8z"/><path d="m40.395 261.859c-2.556 0-5.066-1.222-6.615-3.493-2.49-3.649-1.55-8.627 2.101-11.116l19.826-13.524c3.648-2.491 8.626-1.551 11.116 2.101 2.49 3.649 1.55 8.627-2.101 11.116l-19.826 13.524c-1.379.941-2.948 1.392-4.501 1.392zm39.652-27.049c-2.556 0-5.066-1.222-6.615-3.493-2.49-3.649-1.55-8.627 2.101-11.116l19.826-13.524c3.648-2.491 8.626-1.551 11.116 2.101 2.49 3.649 1.55 8.627-2.101 11.116l-19.826 13.524c-1.378.94-2.948 1.392-4.501 1.392zm39.653-27.05c-2.556 0-5.066-1.223-6.616-3.493-2.489-3.649-1.549-8.627 2.102-11.117l14.307-9.759c3.647-2.488 8.625-1.55 11.117 2.102 2.489 3.649 1.549 8.627-2.102 11.117l-14.307 9.759c-1.379.94-2.948 1.391-4.501 1.391z"/><path d="m261.992 261.859c-1.521 0-3.061-.434-4.423-1.34l-19.982-13.292c-3.679-2.447-4.678-7.413-2.23-11.092 2.446-3.679 7.412-4.68 11.092-2.23l19.982 13.292c3.679 2.447 4.678 7.413 2.23 11.092-1.541 2.316-4.081 3.57-6.669 3.57zm-39.966-26.585c-1.521 0-3.061-.434-4.423-1.34l-19.982-13.292c-3.679-2.447-4.678-7.413-2.23-11.092 2.446-3.679 7.411-4.679 11.092-2.23l19.982 13.292c3.679 2.447 4.678 7.413 2.23 11.092-1.541 2.317-4.081 3.57-6.669 3.57zm-39.966-26.585c-1.521 0-3.061-.434-4.423-1.34l-16.068-10.688c-3.679-2.447-4.678-7.413-2.23-11.092 2.446-3.679 7.411-4.679 11.092-2.23l16.068 10.688c3.679 2.447 4.678 7.413 2.23 11.092-1.541 2.317-4.081 3.57-6.669 3.57z"/></g><path d="m262 262h-224c-2.815 0-5.424-1.48-6.868-3.897-1.444-2.418-1.511-5.416-.176-7.896l112-208c1.395-2.591 4.1-4.207 7.044-4.207s5.648 1.616 7.044 4.207l112 208c1.335 2.479 1.269 5.478-.176 7.896-1.445 2.417-4.053 3.897-6.868 3.897zm-210.607-16h197.213l-98.606-183.126z"/></svg>