<svg id="Capa_1" enable-background="new 0 0 512 512" height="512" viewBox="0 0 512 512" width="512" xmlns="http://www.w3.org/2000/svg"><g><path d="m154.594 178.465v18.044c0 4.142 3.358 7.5 7.5 7.5s7.5-3.358 7.5-7.5v-18.044c0-4.143-3.358-7.5-7.5-7.5s-7.5 3.357-7.5 7.5z"/><path d="m342.406 178.465v18.044c0 4.142 3.358 7.5 7.5 7.5s7.5-3.358 7.5-7.5v-18.044c0-4.143-3.358-7.5-7.5-7.5s-7.5 3.357-7.5 7.5z"/><path d="m275.104 191.044c-10.097 11.587-28.081 11.62-38.207 0-2.723-3.123-7.459-3.448-10.582-.726-3.123 2.721-3.448 7.459-.727 10.582 16.096 18.468 44.745 18.449 60.824 0 2.721-3.123 2.396-7.86-.727-10.582-3.122-2.721-7.86-2.396-10.581.726z"/><path d="m30.769 116.838v40.919c0 4.142 3.358 7.5 7.5 7.5s7.5-3.358 7.5-7.5v-39.801h420.462v114.657c0 4.142 3.358 7.5 7.5 7.5s7.5-3.358 7.5-7.5v-115.775c10.536-3.218 18.222-13.029 18.222-24.604v-27.235c0-14.183-11.539-25.722-25.722-25.722h-183.963v-18.63c0-11.385-9.262-20.647-20.646-20.647h-26.243c-11.384 0-20.646 9.262-20.646 20.646v18.63h-183.964c-14.184 0-25.723 11.539-25.723 25.722v27.235c0 11.576 7.687 21.387 18.223 24.605zm206.463-96.192c0-3.113 2.533-5.646 5.646-5.646h26.243c3.113 0 5.646 2.533 5.646 5.646v18.63h-37.536v-18.63zm-209.686 44.353c0-5.912 4.81-10.722 10.723-10.722h435.462c5.912 0 10.722 4.81 10.722 10.722v27.235c0 5.913-4.81 10.723-10.722 10.723h-435.462c-5.913 0-10.723-4.81-10.723-10.723z"/><path d="m38.269 372.553h90.201l-37.368 111.769c-4.556 13.628 5.565 27.678 19.931 27.678h28.868c12.549 0 23.653-7.996 27.632-19.898l39.969-119.549h96.996l39.969 119.549c3.979 11.902 15.084 19.898 27.632 19.898h28.869c14.369 0 24.487-14.053 19.93-27.678l-37.367-111.769h90.201c14.183 0 25.722-11.539 25.722-25.722v-17.243c0-11.575-7.687-21.386-18.222-24.604v-42.371c0-4.142-3.358-7.5-7.5-7.5s-7.5 3.358-7.5 7.5v41.252h-420.463v-116.108c0-4.142-3.358-7.5-7.5-7.5s-7.5 3.358-7.5 7.5v117.227c-10.536 3.218-18.223 13.029-18.223 24.604v17.243c0 14.183 11.539 25.722 25.723 25.722zm115.039 114.793c-1.931 5.774-7.318 9.654-13.407 9.654h-28.868c-4.113 0-7.009-4.022-5.705-7.922l38.958-116.525h47.4zm253.364 1.732c1.304 3.9-1.592 7.922-5.705 7.922h-28.869c-6.088 0-11.476-3.88-13.406-9.654l-38.379-114.793h47.401zm-379.126-159.49c0-5.912 4.81-10.722 10.721-10.722h.001 435.462.001c5.911 0 10.721 4.811 10.721 10.722v17.243c0 5.912-4.81 10.722-10.722 10.722-54.563 0-386.776 0-435.462 0-5.913 0-10.723-4.81-10.723-10.722v-17.243z"/></g></svg>